<svg id="visual" viewBox="0 0 600 900" width="600" height="900" xmlns="http://www.w3.org/2000/svg" xmlns:xlink="http://www.w3.org/1999/xlink" version="1.1"><rect x="0" y="0" width="600" height="900" fill="#F8F0E5"></rect><path d="M0 284L86 384L171 357L257 397L343 425L429 352L514 316L600 392L600 901L514 901L429 901L343 901L257 901L171 901L86 901L0 901Z" fill="#eadbc8"></path><path d="M0 478L86 461L171 465L257 404L343 505L429 526L514 438L600 486L600 901L514 901L429 901L343 901L257 901L171 901L86 901L0 901Z" fill="#e6d5c0"></path><path d="M0 514L86 597L171 535L257 574L343 539L429 592L514 575L600 622L600 901L514 901L429 901L343 901L257 901L171 901L86 901L0 901Z" fill="#e2ceb8"></path><path d="M0 708L86 636L171 667L257 634L343 707L429 678L514 674L600 672L600 901L514 901L429 901L343 901L257 901L171 901L86 901L0 901Z" fill="#dec7b0"></path><path d="M0 767L86 753L171 741L257 727L343 741L429 738L514 776L600 756L600 901L514 901L429 901L343 901L257 901L171 901L86 901L0 901Z" fill="#dac0a9"></path></svg>