<svg id="visual" viewBox="0 0 900 600" width="900" height="600" xmlns="http://www.w3.org/2000/svg" xmlns:xlink="http://www.w3.org/1999/xlink" version="1.1"><path d="M0 199L129 79L257 121L386 121L514 265L643 259L771 265L900 115L900 0L771 0L643 0L514 0L386 0L257 0L129 0L0 0Z" fill="#f8f0e5"></path><path d="M0 343L129 277L257 325L386 259L514 385L643 373L771 421L900 307L900 113L771 263L643 257L514 263L386 119L257 119L129 77L0 197Z" fill="#e5d2bb"></path><path d="M0 457L129 421L257 505L386 397L514 463L643 457L771 475L900 457L900 305L771 419L643 371L514 383L386 257L257 323L129 275L0 341Z" fill="#dac0a3"></path><path d="M0 559L129 511L257 547L386 505L514 559L643 529L771 523L900 505L900 455L771 473L643 455L514 461L386 395L257 503L129 419L0 455Z" fill="#e5d2bb"></path><path d="M0 601L129 601L257 601L386 601L514 601L643 601L771 601L900 601L900 503L771 521L643 527L514 557L386 503L257 545L129 509L0 557Z" fill="#f8f0e5"></path></svg>