<svg id="visual" viewBox="0 0 900 600" width="900" height="600" xmlns="http://www.w3.org/2000/svg" xmlns:xlink="http://www.w3.org/1999/xlink" version="1.1"><rect x="0" y="0" width="900" height="600" fill="#DAC0A3"></rect><path d="M0 419L150 413L300 374L450 377L600 409L750 451L900 418L900 601L750 601L600 601L450 601L300 601L150 601L0 601Z" fill="#eadbc8"></path><path d="M0 446L150 482L300 485L450 459L600 472L750 432L900 423L900 601L750 601L600 601L450 601L300 601L150 601L0 601Z" fill="#efe2d1"></path><path d="M0 512L150 488L300 525L450 502L600 481L750 474L900 515L900 601L750 601L600 601L450 601L300 601L150 601L0 601Z" fill="#f3e9db"></path><path d="M0 528L150 542L300 538L450 521L600 517L750 529L900 531L900 601L750 601L600 601L450 601L300 601L150 601L0 601Z" fill="#f8f0e5"></path></svg>