<svg id="visual" viewBox="0 0 900 600" width="900" height="600" xmlns="http://www.w3.org/2000/svg" xmlns:xlink="http://www.w3.org/1999/xlink" version="1.1"><path d="M0 97L150 121L300 61L450 91L600 103L750 73L900 151L900 0L750 0L600 0L450 0L300 0L150 0L0 0Z" fill="#f8f0e5"></path><path d="M0 187L150 211L300 169L450 157L600 175L750 139L900 205L900 149L750 71L600 101L450 89L300 59L150 119L0 95Z" fill="#f0e4d4"></path><path d="M0 235L150 277L300 235L450 253L600 241L750 199L900 295L900 203L750 137L600 173L450 155L300 167L150 209L0 185Z" fill="#e9d8c3"></path><path d="M0 469L150 487L300 433L450 415L600 403L750 391L900 475L900 293L750 197L600 239L450 251L300 233L150 275L0 233Z" fill="#e1ccb3"></path><path d="M0 601L150 601L300 601L450 601L600 601L750 601L900 601L900 473L750 389L600 401L450 413L300 431L150 485L0 467Z" fill="#dac0a3"></path></svg>